REM DIRINDEX 1\2,1\3,1\4
REM DIRNAME cjc105,folder01,folder02,folder03
TITLE ""
FILE "DISC2Track08.mp3" MP3
  TRACK 01 AUDIO
    TITLE "0:"
    INDEX 01 00:00:00
  TRACK 02 AUDIO
    TITLE "4:cjc105_2163"
    INDEX 01 00:00:17
  TRACK 03 AUDIO
    TITLE "0:"
    INDEX 01 00:03:45
  TRACK 04 AUDIO
    TITLE "2:cjc105_2164"
    INDEX 01 00:04:17
  TRACK 05 AUDIO
    TITLE "3:cjc105_2165"
    INDEX 01 00:05:40
  TRACK 06 AUDIO
    TITLE "0:"
    INDEX 01 00:06:59
  TRACK 07 AUDIO
    TITLE "2:cjc105_2166"
    INDEX 01 00:06:69
  TRACK 08 AUDIO
    TITLE "3:cjc105_2167"
    INDEX 01 00:08:64
  TRACK 09 AUDIO
    TITLE "0:"
    INDEX 01 00:11:01
  TRACK 10 AUDIO
    TITLE "2:cjc105_2168"
    INDEX 01 00:11:15
  TRACK 11 AUDIO
    TITLE "3:cjc105_2169"
    INDEX 01 00:12:44
  TRACK 12 AUDIO
    TITLE "0:"
    INDEX 01 00:14:07
  TRACK 13 AUDIO
    TITLE "2:cjc105_2170"
    INDEX 01 00:14:29
  TRACK 14 AUDIO
    TITLE "3:cjc105_2171"
    INDEX 01 00:15:25
  TRACK 15 AUDIO
    TITLE "0:"
    INDEX 01 00:16:59
  TRACK 16 AUDIO
    TITLE "2:cjc105_2172"
    INDEX 01 00:16:69
  TRACK 17 AUDIO
    TITLE "3:cjc105_2173"
    INDEX 01 00:18:05
  TRACK 18 AUDIO
    TITLE "0:"
    INDEX 01 00:19:34
  TRACK 19 AUDIO
    TITLE "2:cjc105_2174"
    INDEX 01 00:19:46
  TRACK 20 AUDIO
    TITLE "3:cjc105_2175"
    INDEX 01 00:20:57
  TRACK 21 AUDIO
    TITLE "0:"
    INDEX 01 00:21:70
  TRACK 22 AUDIO
    TITLE "2:cjc105_2176"
    INDEX 01 00:22:03
  TRACK 23 AUDIO
    TITLE "3:cjc105_2177"
    INDEX 01 00:23:59
  TRACK 24 AUDIO
    TITLE "0:"
    INDEX 01 00:25:23
  TRACK 25 AUDIO
    TITLE "2:cjc105_2178"
    INDEX 01 00:25:37
  TRACK 26 AUDIO
    TITLE "3:cjc105_2179"
    INDEX 01 00:26:66
  TRACK 27 AUDIO
    TITLE "0:"
    INDEX 01 00:28:04
  TRACK 28 AUDIO
    TITLE "2:cjc105_2180"
    INDEX 01 00:28:17
  TRACK 29 AUDIO
    TITLE "3:cjc105_2181"
    INDEX 01 00:30:08
  TRACK 30 AUDIO
    TITLE "0:"
    INDEX 01 00:32:09
  TRACK 31 AUDIO
    TITLE "2:cjc105_2182"
    INDEX 01 00:32:23
  TRACK 32 AUDIO
    TITLE "3:cjc105_2183"
    INDEX 01 00:33:40
  TRACK 33 AUDIO
    TITLE "0:"
    INDEX 01 00:35:15
  TRACK 34 AUDIO
    TITLE "2:cjc105_2184"
    INDEX 01 00:35:29
  TRACK 35 AUDIO
    TITLE "3:cjc105_2185"
    INDEX 01 00:37:14
  TRACK 36 AUDIO
    TITLE "0:"
    INDEX 01 00:38:43
  TRACK 37 AUDIO
    TITLE "2:cjc105_2186"
    INDEX 01 00:38:65
  TRACK 38 AUDIO
    TITLE "3:cjc105_2187"
    INDEX 01 00:40:32
  TRACK 39 AUDIO
    TITLE "0:"
    INDEX 01 00:41:73
  TRACK 40 AUDIO
    TITLE "2:cjc105_2188"
    INDEX 01 00:42:10
  TRACK 41 AUDIO
    TITLE "3:cjc105_2189"
    INDEX 01 00:43:44
  TRACK 42 AUDIO
    TITLE "0:"
    INDEX 01 00:45:08
  TRACK 43 AUDIO
    TITLE "2:cjc105_2190"
    INDEX 01 00:45:20
  TRACK 44 AUDIO
    TITLE "3:cjc105_2191"
    INDEX 01 00:47:01
  TRACK 45 AUDIO
    TITLE "0:"
    INDEX 01 00:49:08
  TRACK 46 AUDIO
    TITLE "2:cjc105_2192"
    INDEX 01 00:49:23
  TRACK 47 AUDIO
    TITLE "3:cjc105_2193"
    INDEX 01 00:50:42
  TRACK 48 AUDIO
    TITLE "0:"
    INDEX 01 00:52:04
  TRACK 49 AUDIO
    TITLE "2:cjc105_2194"
    INDEX 01 00:52:18
  TRACK 50 AUDIO
    TITLE "3:cjc105_2195"
    INDEX 01 00:53:70
  TRACK 51 AUDIO
    TITLE "0:"
    INDEX 01 00:55:04
  TRACK 52 AUDIO
    TITLE "2:cjc105_2196"
    INDEX 01 00:55:14
  TRACK 53 AUDIO
    TITLE "3:cjc105_2197"
    INDEX 01 00:56:55
  TRACK 54 AUDIO
    TITLE "0:"
    INDEX 01 00:58:62
  TRACK 55 AUDIO
    TITLE "2:cjc105_2198"
    INDEX 01 00:59:02
  TRACK 56 AUDIO
    TITLE "3:cjc105_2199"
    INDEX 01 01:00:39
  TRACK 57 AUDIO
    TITLE "0:"
    INDEX 01 01:02:28
  TRACK 58 AUDIO
    TITLE "2:cjc105_2200"
    INDEX 01 01:02:44
  TRACK 59 AUDIO
    TITLE "3:cjc105_2201"
    INDEX 01 01:03:63
  TRACK 60 AUDIO
    TITLE "0:"
    INDEX 01 01:05:32
  TRACK 61 AUDIO
    TITLE "2:cjc105_2202"
    INDEX 01 01:05:40
  TRACK 62 AUDIO
    TITLE "3:cjc105_2203"
    INDEX 01 01:07:14
  TRACK 63 AUDIO
    TITLE "0:"
    INDEX 01 01:08:58
  TRACK 64 AUDIO
    TITLE "2:cjc105_2204"
    INDEX 01 01:08:74
  TRACK 65 AUDIO
    TITLE "3:cjc105_2205"
    INDEX 01 01:10:53
  TRACK 66 AUDIO
    TITLE "0:"
    INDEX 01 01:12:46
  TRACK 67 AUDIO
    TITLE "2:cjc105_2206"
    INDEX 01 01:12:58
  TRACK 68 AUDIO
    TITLE "3:cjc105_2207"
    INDEX 01 01:14:45
  TRACK 69 AUDIO
    TITLE "0:"
    INDEX 01 01:15:74
  TRACK 70 AUDIO
    TITLE "2:cjc105_2208"
    INDEX 01 01:16:12
  TRACK 71 AUDIO
    TITLE "3:cjc105_2209"
    INDEX 01 01:17:57
  TRACK 72 AUDIO
    TITLE "0:"
    INDEX 01 01:19:07
  TRACK 73 AUDIO
    TITLE "2:cjc105_2210"
    INDEX 01 01:19:32
  TRACK 74 AUDIO
    TITLE "3:cjc105_2211"
    INDEX 01 01:20:69
  TRACK 75 AUDIO
    TITLE "0:"
    INDEX 01 01:22:37
  TRACK 76 AUDIO
    TITLE "2:cjc105_2212"
    INDEX 01 01:22:48
  TRACK 77 AUDIO
    TITLE "3:cjc105_2213"
    INDEX 01 01:24:24
  TRACK 78 AUDIO
    TITLE "0:"
    INDEX 01 01:26:05
  TRACK 79 AUDIO
    TITLE "2:cjc105_2214"
    INDEX 01 01:26:17
  TRACK 80 AUDIO
    TITLE "3:cjc105_2215"
    INDEX 01 01:28:04
  TRACK 81 AUDIO
    TITLE "0:"
    INDEX 01 01:29:64
